<svg xmlns="http://www.w3.org/2000/svg" viewBox="0 0 512 512" role="img" aria-label="Svet za malo logo">
  <rect width="512" height="512" rx="108" ry="108" fill="#ffffff" />
  <rect x="40" y="40" width="432" height="432" rx="84" ry="84" fill="none" stroke="#111111" stroke-width="20" />

  <!-- airplane -->
  <path d="M250 126 L336 148 L412 140 L356 182 L344 248 L314 188 L242 172 Z" fill="#111111" />
  <path d="M200 206 C236 180, 278 170, 320 170" fill="none" stroke="#111111" stroke-width="14" stroke-linecap="round"
    stroke-dasharray="2 22" />

  <!-- traveler -->
  <circle cx="194" cy="286" r="28" fill="#111111" />
  <path d="M170 330 C170 312 218 312 218 330 V420 H170 Z" fill="#111111" />
  <rect x="220" y="320" width="64" height="98" rx="18" ry="18" fill="none" stroke="#111111" stroke-width="18" />
  <path d="M194 420 L164 458" stroke="#111111" stroke-width="18" stroke-linecap="round" />
  <path d="M194 420 L224 458" stroke="#111111" stroke-width="18" stroke-linecap="round" />
  <path d="M170 356 L138 396" stroke="#111111" stroke-width="16" stroke-linecap="round" />
  <path d="M218 350 L250 382" stroke="#111111" stroke-width="16" stroke-linecap="round" />
</svg>